<?xml version="1.0" standalone="no"?>
<!DOCTYPE svg PUBLIC "-//W3C//DTD SVG 20010904//EN"
 "http://www.w3.org/TR/2001/REC-SVG-20010904/DTD/svg10.dtd">
<svg version="1.0" xmlns="http://www.w3.org/2000/svg"
 width="512.000000pt" height="512.000000pt" viewBox="0 0 512.000000 512.000000"
 preserveAspectRatio="xMidYMid meet">
<metadata>
Created by potrace 1.16, written by Peter Selinger 2001-2019
</metadata>
<g transform="translate(0.000000,512.000000) scale(0.100000,-0.100000)"
fill="#000000" stroke="none">
<path d="M3071 4474 c-11 -14 -27 -49 -37 -77 -26 -79 -32 -83 -62 -37 -14 21
-28 38 -30 36 -5 -6 118 -269 135 -288 14 -15 54 -17 417 -20 l401 -3 66 -31
c112 -53 181 -130 216 -242 23 -72 31 -2269 9 -2346 -20 -68 -73 -128 -144
-163 l-57 -28 -649 -3 c-478 -2 -652 0 -662 9 -8 6 -14 24 -14 38 0 54 -16 62
-120 59 l-95 -3 -10 -50 -11 -50 -615 -3 c-418 -2 -630 0 -665 8 -109 23 -178
112 -191 242 -5 56 -10 71 -34 94 -24 23 -29 36 -29 75 0 53 -16 72 -37 44
-23 -32 -16 -81 17 -118 25 -29 30 -43 30 -89 0 -94 25 -154 88 -218 99 -99
-46 -91 1587 -88 l1430 3 56 26 c66 31 128 90 161 151 l23 43 5 660 5 659 50
19 c27 10 53 24 57 30 4 7 8 103 8 214 0 227 1 225 -76 245 l-44 12 0 181 c-1
259 -12 353 -50 432 -62 126 -208 229 -341 240 -35 3 -72 10 -81 15 -28 14
-55 77 -72 166 -17 91 -46 156 -75 172 -12 6 -120 10 -280 10 l-260 0 -20 -26z
m422 -121 c-73 -2 -193 -2 -265 0 -73 1 -14 3 132 3 146 0 205 -2 133 -3z
m137 -38 c0 -13 -36 -15 -265 -15 -229 0 -265 2 -265 15 0 13 36 15 265 15
229 0 265 -2 265 -15z m0 -50 c0 -13 -36 -15 -265 -15 -229 0 -265 2 -265 15
0 13 36 15 265 15 229 0 265 -2 265 -15z m-5 -55 c-8 -13 -525 -13 -525 0 0 6
104 10 266 10 170 0 263 -3 259 -10z m-60 -30 c46 -4 -22 -7 -197 -8 -173 -1
-268 2 -268 8 0 12 354 12 465 0z m725 -1170 c0 -38 -4 -50 -15 -50 -11 0 -15
12 -15 50 0 38 4 50 15 50 11 0 15 -12 15 -50z m50 0 c0 -38 -4 -50 -15 -50
-11 0 -15 12 -15 50 0 38 4 50 15 50 11 0 15 -12 15 -50z"/>
<path d="M2273 4352 c-26 -4 -42 -28 -72 -109 -24 -66 -49 -95 -94 -112 -34
-13 -233 -15 -241 -2 -3 4 1 17 9 27 18 24 19 75 3 97 -12 15 -41 17 -267 17
-140 1 -257 -2 -262 -7 -4 -4 -9 -35 -11 -68 l-3 -60 -47 -5 c-26 -3 -51 -9
-55 -13 -4 -5 -8 -29 -8 -55 l0 -47 -66 -6 c-78 -6 -140 -39 -193 -100 -52
-61 -67 -115 -73 -261 l-6 -128 -38 0 c-67 0 -69 -3 -69 -99 0 -54 5 -92 12
-99 16 -16 110 -15 130 1 14 10 17 43 20 227 4 236 10 264 74 339 30 36 94 70
132 71 23 0 23 -1 -6 -24 -16 -14 -44 -53 -63 -88 -31 -58 -34 -71 -37 -171
-4 -114 3 -142 33 -117 12 10 15 34 15 109 0 116 23 176 95 246 l47 45 360 0
c407 0 361 -8 475 87 44 37 57 43 98 43 25 0 55 5 65 10 11 6 36 45 55 87 40
86 53 103 108 144 l38 27 -68 -1 c-37 -1 -78 -3 -90 -5z m-525 -299 l3 -43
-190 0 -191 0 0 45 0 45 188 -2 187 -3 3 -42z m-868 -638 l0 -65 -35 0 -35 0
0 65 0 65 35 0 35 0 0 -65z"/>
<path d="M2519 4261 c-43 -43 -41 -101 5 -147 51 -51 118 -43 156 18 64 103
-75 214 -161 129z"/>
<path d="M3472 3968 c-8 -8 -12 -49 -12 -119 0 -100 1 -108 21 -114 l21 -7
-21 -15 c-36 -25 -26 -59 48 -162 38 -53 84 -121 103 -151 79 -123 153 -298
144 -335 -3 -13 -25 -32 -51 -46 -36 -19 -45 -29 -45 -51 0 -23 -5 -28 -35
-34 -64 -12 -65 -14 -65 -234 0 -213 -10 -292 -53 -415 -66 -186 -146 -314
-273 -434 -71 -68 -105 -91 -198 -136 -138 -68 -244 -94 -405 -102 -108 -5
-125 -4 -133 10 -5 11 -22 17 -42 17 -104 0 -328 83 -458 171 -82 55 -210 185
-272 276 -27 40 -51 71 -53 69 -7 -7 48 -109 92 -171 53 -75 177 -194 252
-242 122 -78 265 -128 420 -148 l53 -7 -6 -39 -7 -39 59 0 c160 0 334 35 474
95 247 106 380 264 517 614 62 157 72 226 73 474 l0 207 26 10 c14 6 26 10 27
10 1 0 1 -117 -1 -260 -3 -229 -1 -260 13 -260 13 0 15 29 15 229 0 125 3 256
6 290 l7 62 53 32 c30 17 54 37 54 44 0 21 -62 157 -81 177 -17 18 -17 21 -2
31 14 11 12 19 -22 76 -63 105 -129 200 -189 274 -53 64 -56 70 -40 82 10 7
44 13 77 13 l59 0 -6 -27 c-7 -35 6 -58 29 -49 15 5 16 23 13 157 -3 145 -4
152 -27 170 -27 22 -139 27 -159 7z m142 -34 c3 -9 6 -56 6 -105 l0 -89 -64 0
c-61 0 -64 1 -69 27 -3 14 -2 62 0 105 l6 78 57 0 c44 0 59 -4 64 -16z"/>
<path d="M2403 3915 c-159 -29 -357 -118 -499 -224 -144 -107 -380 -377 -360
-410 15 -23 34 -9 81 61 159 232 460 452 711 519 93 25 374 40 374 20 0 -7
-33 -11 -102 -11 -156 0 -338 -35 -338 -64 0 -8 8 -24 18 -36 l19 -23 106 16
c160 25 333 23 449 -7 93 -24 248 -92 255 -112 2 -6 -27 5 -64 23 -79 38 -197
78 -266 87 -39 6 -52 4 -77 -14 -24 -17 -30 -29 -30 -59 0 -21 6 -43 13 -48 6
-6 45 -18 85 -26 88 -20 209 -68 276 -109 l50 -30 18 22 c11 13 23 30 28 39 8
15 11 15 35 0 14 -8 59 -45 100 -82 78 -71 95 -79 95 -47 0 51 -62 121 -163
185 -46 29 -58 41 -54 56 4 15 -4 26 -31 44 -55 36 -207 100 -289 121 -65 16
-73 21 -73 42 0 22 3 24 38 17 20 -3 71 -18 112 -31 346 -116 634 -412 747
-768 5 -17 15 -32 23 -34 37 -13 -28 166 -113 308 -61 101 -224 275 -340 361
-102 76 -238 142 -357 174 -52 14 -108 31 -125 37 -43 17 -266 19 -352 3z
m457 -235 c93 -30 224 -91 249 -115 7 -7 11 -18 7 -23 -4 -7 -37 5 -86 29 -88
44 -195 83 -258 94 -43 7 -58 18 -47 35 10 16 37 12 135 -20z"/>
<path d="M3873 3785 c-40 -17 -73 -69 -73 -113 0 -125 155 -166 220 -59 25 41
25 83 0 124 -31 52 -93 72 -147 48z m91 -56 c54 -43 23 -129 -47 -129 -57 0
-90 57 -63 109 24 46 67 54 110 20z"/>
<path d="M1289 3741 c-24 -24 -29 -38 -29 -76 0 -65 39 -105 102 -105 36 0 50
6 74 31 23 24 29 39 29 75 0 39 -5 50 -33 75 -45 41 -102 41 -143 0z m111 -21
c35 -19 33 -88 -4 -112 -19 -13 -59 -9 -78 9 -22 20 -23 70 -1 95 18 20 54 23
83 8z"/>
<path d="M1633 3759 c-55 -20 -67 -101 -20 -134 65 -45 145 33 107 105 -13 24
-59 39 -87 29z m54 -55 c8 -22 -10 -49 -32 -49 -10 0 -22 7 -28 16 -15 24 -1
49 28 49 15 0 28 -7 32 -16z"/>
<path d="M2637 3753 c-4 -3 -7 -21 -7 -38 l0 -32 -102 -6 c-141 -7 -358 -66
-358 -96 0 -26 35 -28 95 -6 77 29 162 45 290 53 l100 7 3 53 c2 32 8 52 15
52 7 0 6 4 -3 10 -18 12 -24 12 -33 3z"/>
<path d="M1942 3636 c-192 -142 -361 -356 -442 -559 -81 -206 -106 -413 -80
-643 13 -115 22 -132 50 -99 11 13 11 35 2 110 -28 227 -7 419 67 612 29 73
101 207 108 200 1 -2 -19 -48 -46 -103 -143 -290 -159 -580 -53 -994 52 -201
87 -289 142 -358 43 -53 150 -152 215 -199 16 -12 28 -24 25 -26 -3 -3 -110
-7 -238 -9 l-232 -3 -2 125 c-2 69 -1 167 0 219 3 74 1 92 -10 89 -17 -6 -24
-407 -8 -438 10 -19 23 -20 350 -20 210 0 340 4 340 10 0 5 -21 21 -47 36
-141 79 -268 176 -314 238 -36 50 -115 248 -168 424 -22 74 -46 141 -53 149
-10 13 -9 18 9 32 20 16 20 24 15 153 -10 265 45 460 191 678 59 88 199 231
277 283 l54 37 23 -28 c27 -33 28 -40 7 -81 -9 -18 -14 -35 -11 -37 3 -3 32 8
66 25 95 49 222 81 341 88 507 28 942 -379 940 -879 -2 -316 -197 -638 -465
-768 -88 -42 -105 -46 -105 -21 0 21 7 27 115 98 128 83 235 205 294 335 83
182 81 461 -3 651 -61 139 -188 291 -306 369 -159 104 -357 142 -539 103 -224
-47 -440 -211 -542 -413 -49 -97 -32 -102 24 -8 120 207 299 332 528 372 106
18 183 14 299 -17 235 -63 438 -276 512 -536 29 -103 31 -280 5 -367 -22 -69
-32 -69 -17 0 17 72 14 248 -4 326 -52 225 -270 462 -484 528 -62 19 -253 39
-202 21 14 -5 44 -9 66 -10 98 -2 239 -64 329 -143 54 -48 135 -152 135 -174
0 -38 -33 -23 -109 48 -132 125 -262 174 -436 165 -109 -5 -198 -32 -285 -86
-25 -16 -57 -31 -72 -35 -36 -8 -129 -113 -172 -195 -83 -158 -89 -355 -16
-517 30 -67 96 -169 128 -197 35 -32 32 -3 -4 49 -124 172 -156 365 -94 559
28 86 110 231 142 251 5 3 20 1 33 -6 18 -10 31 -10 56 -1 59 20 60 11 6 -41
-61 -60 -121 -161 -148 -250 -21 -67 -25 -184 -9 -268 13 -70 6 -74 -16 -8
-24 68 -24 223 0 287 9 24 16 45 16 48 0 2 -16 -9 -35 -24 -42 -33 -55 -73
-55 -166 0 -176 94 -395 187 -433 19 -9 52 -26 72 -38 85 -54 148 -70 276 -70
100 0 131 3 185 23 85 29 179 91 235 153 55 61 119 187 135 265 16 74 7 253
-14 312 -17 47 -22 91 -7 75 16 -17 41 -108 51 -187 16 -128 -14 -273 -80
-384 -22 -37 -26 -63 -10 -63 22 0 8 -47 -26 -90 -107 -134 -318 -221 -504
-207 -235 18 -458 166 -559 370 -76 153 -89 319 -42 501 37 140 -15 124 -59
-19 -34 -107 -38 -258 -11 -366 67 -267 268 -472 551 -560 63 -20 97 -24 210
-24 74 0 153 3 175 7 l40 7 -45 -15 c-68 -24 -269 -29 -357 -11 -247 53 -448
212 -559 442 -52 108 -72 182 -81 296 -10 142 38 351 109 472 39 67 145 185
203 225 35 24 31 31 -18 39 -35 5 -40 2 -134 -93 -67 -68 -112 -123 -142 -176
-138 -246 -167 -416 -110 -636 27 -102 43 -130 76 -134 28 -3 34 -10 103 -124
69 -114 221 -249 355 -316 205 -104 470 -116 694 -32 147 55 307 181 394 308
124 184 186 437 158 651 -52 389 -340 709 -713 792 -95 21 -289 21 -384 0 -39
-9 -102 -28 -139 -42 l-68 -25 -22 20 c-11 11 -43 47 -71 80 -27 33 -56 60
-65 60 -9 0 -44 -20 -77 -44z m894 -531 c58 -34 159 -145 194 -215 67 -133 80
-292 34 -428 -37 -112 -121 -241 -146 -226 -5 4 3 19 18 35 26 27 27 32 16 60
-9 26 -8 37 4 62 30 57 54 141 60 207 7 73 -14 194 -42 240 l-15 25 4 -25 c3
-14 8 -41 12 -60 3 -19 -4 -6 -17 30 -54 151 -166 246 -343 287 -61 14 10 14
79 0 l68 -14 -4 29 c-4 25 -2 27 16 22 12 -3 39 -17 62 -29z m-78 -105 c66
-35 104 -75 142 -150 l23 -45 -43 43 c-42 42 -70 54 -70 29 0 -7 4 -17 9 -23
15 -14 43 -87 32 -79 -6 3 -11 12 -11 20 0 24 -90 113 -138 136 -35 18 -64 23
-117 23 -85 0 -144 -24 -210 -85 -25 -23 -43 -35 -39 -25 3 9 1 23 -6 31 -25
30 66 117 157 151 25 9 67 13 123 11 74 -3 93 -7 148 -37z m-119 -185 c41 -21
79 -69 92 -118 15 -57 -2 -112 -52 -159 -64 -61 -149 -63 -216 -5 -88 77 -84
200 10 268 46 33 118 39 166 14z m-425 -342 c16 -34 37 -70 47 -79 25 -23 25
-4 -1 46 -22 44 -50 151 -49 190 0 15 8 0 18 -35 24 -83 41 -112 101 -173 61
-62 123 -96 206 -112 109 -21 244 20 323 99 46 46 50 43 21 -12 -22 -40 -18
-47 14 -19 12 10 8 1 -10 -25 -74 -102 -152 -138 -304 -138 -99 0 -110 2 -171
32 -84 41 -160 121 -202 210 -28 61 -32 79 -33 168 l-2 100 7 -95 c6 -71 14
-110 35 -157z m622 19 c-31 -59 -134 -133 -183 -131 -10 0 2 8 27 16 30 11 65
37 105 78 33 35 61 63 63 64 1 0 -4 -12 -12 -27z m-209 -138 c-3 -3 -12 -4
-19 -1 -8 3 -5 6 6 6 11 1 17 -2 13 -5z"/>
<path d="M2505 2810 c-31 -13 -66 -50 -81 -86 -57 -136 85 -265 218 -200 142
69 87 298 -71 295 -25 0 -55 -4 -66 -9z m141 -35 c111 -72 61 -245 -71 -245
-106 0 -170 115 -112 201 43 65 122 84 183 44z"/>
<path d="M4108 2863 c-2 -296 -2 -540 -1 -542 1 -2 9 -1 18 2 13 6 15 68 15
542 0 465 -2 535 -15 535 -13 0 -15 -72 -17 -537z"/>
<path d="M2493 3333 c9 -2 25 -2 35 0 9 3 1 5 -18 5 -19 0 -27 -2 -17 -5z"/>
<path d="M2485 3269 c-32 -5 -75 -14 -95 -20 -50 -16 -170 -80 -170 -90 0 -14
10 -11 95 30 95 47 158 61 267 61 91 0 178 -20 251 -56 56 -29 71 -26 32 4
-39 31 -129 62 -209 72 -81 11 -90 11 -171 -1z"/>
<path d="M977 3063 c-4 -3 -7 -218 -7 -476 0 -415 -2 -472 -16 -488 -8 -9 -14
-27 -12 -38 l3 -21 33 20 32 20 0 465 c0 355 3 470 13 485 10 17 9 22 -3 30
-18 11 -34 13 -43 3z"/>
<path d="M1348 3004 c-5 -4 -8 -155 -8 -336 0 -256 3 -328 13 -328 9 0 11 59
9 267 -3 344 -5 406 -14 397z"/>
<path d="M3757 2730 c10 -201 -29 -395 -113 -563 -42 -84 -43 -96 -4 -37 39
58 88 185 106 274 18 92 28 329 16 386 -8 35 -9 22 -5 -60z"/>
<path d="M886 2800 c-3 -14 -4 -86 -2 -160 2 -74 5 -191 6 -260 2 -118 3 -123
15 -85 19 58 20 436 1 490 -13 37 -15 38 -20 15z"/>
<path d="M1274 2733 c-8 -87 1 -253 15 -298 7 -22 8 -9 3 45 -4 41 -6 132 -6
203 1 70 0 127 -1 127 -2 0 -7 -35 -11 -77z"/>
<path d="M3896 2768 c-13 -18 -16 -51 -16 -150 0 -120 1 -128 22 -142 31 -22
64 -20 88 4 18 18 20 33 20 148 0 112 -2 131 -18 145 -27 25 -78 22 -96 -5z
m74 -144 c0 -124 0 -125 -22 -122 -22 3 -23 8 -26 112 -3 124 -1 136 28 136
19 0 20 -6 20 -126z"/>
<path d="M3825 2257 c-71 -146 -154 -263 -289 -404 -39 -42 -53 -63 -43 -63
10 0 17 -2 17 -5 0 -18 -68 -110 -100 -135 -49 -39 -137 -80 -173 -80 -19 0
-27 -4 -24 -12 6 -20 91 -13 140 11 24 12 63 38 87 58 75 65 124 164 87 178
-7 3 13 32 54 74 119 124 205 249 260 380 17 40 29 74 27 77 -2 2 -22 -34 -43
-79z"/>
<path d="M1391 2276 c-1 -15 39 -144 59 -192 27 -62 101 -187 107 -180 3 2
-18 47 -46 99 -28 52 -66 137 -85 188 -19 52 -35 90 -35 85z"/>
<path d="M2992 2230 c-35 -44 -155 -120 -235 -148 -139 -48 -282 -41 -438 22
-71 28 -78 16 -11 -18 164 -83 356 -83 531 1 72 34 191 135 191 161 0 19 -13
13 -38 -18z"/>
<path d="M3667 1750 c-37 -29 -52 -81 -37 -126 13 -39 60 -74 98 -74 55 0 112
56 112 110 0 29 -26 76 -52 94 -31 22 -90 20 -121 -4z m104 -23 c20 -15 39
-51 39 -72 0 -24 -55 -75 -80 -75 -32 0 -70 44 -70 81 0 61 67 100 111 66z"/>
<path d="M2957 1083 c-6 -10 -10 -161 -9 -282 2 -91 3 -94 35 -126 55 -55 130
-60 143 -9 9 33 -2 41 -26 19 -22 -20 -55 -15 -90 13 -20 16 -23 30 -28 113
-4 80 -2 98 12 112 20 20 79 23 94 5 6 -7 13 -50 17 -95 6 -63 11 -83 22 -83
12 0 14 16 11 90 -4 112 -21 135 -98 135 l-50 0 0 58 c0 43 -4 57 -14 57 -8 0
-17 -3 -19 -7z"/>
<path d="M3560 881 l0 -191 25 -16 c31 -20 59 -15 63 14 3 18 -1 22 -21 22
-33 0 -36 13 -30 109 7 94 20 111 86 111 31 0 38 3 35 18 -4 18 -53 23 -95 9
-21 -8 -22 -5 -25 50 -2 46 -7 59 -20 61 -17 3 -18 -11 -18 -187z"/>
<path d="M2692 1040 c-12 -5 -27 -22 -33 -37 -15 -40 -13 -117 5 -151 15 -30
69 -62 103 -62 27 0 63 -28 63 -49 0 -41 -64 -56 -109 -25 -19 14 -25 14 -32
3 -22 -34 25 -62 95 -56 55 5 86 31 86 72 0 36 -44 82 -87 90 -56 10 -81 30
-93 75 -8 30 -7 47 4 73 19 46 55 55 107 28 38 -20 54 -16 43 12 -12 32 -99
48 -152 27z"/>
<path d="M1457 1023 c-3 -4 -1 -75 3 -158 5 -82 9 -158 9 -167 1 -11 9 -18 21
-18 19 0 19 5 13 133 -3 72 -8 150 -12 171 -6 37 -23 57 -34 39z"/>
<path d="M3285 1016 c-114 -51 -136 -234 -37 -304 57 -41 138 -35 196 16 26
23 56 91 56 127 0 110 -124 203 -215 161z m111 -45 c34 -21 64 -75 64 -116 0
-41 -30 -95 -64 -116 -129 -79 -239 103 -131 217 38 40 82 45 131 15z"/>
<path d="M2498 1000 c-122 -65 -137 -242 -28 -333 57 -48 133 -45 146 7 9 39
1 91 -16 91 -10 0 -17 -14 -20 -45 -6 -56 -32 -64 -80 -23 -46 39 -73 103 -65
155 8 47 62 113 100 122 16 4 25 13 25 26 0 25 -15 25 -62 0z"/>
<path d="M1855 850 c-42 -99 -65 -165 -61 -176 11 -28 30 -1 66 90 17 44 37
91 45 105 l13 26 7 -30 c36 -156 60 -213 81 -192 3 3 -11 69 -30 147 -20 78
-36 150 -36 160 0 51 -23 15 -85 -130z"/>
<path d="M2166 929 c-38 -178 -45 -262 -25 -275 18 -11 26 13 33 101 9 126 13
127 61 20 48 -105 60 -125 81 -125 21 0 18 8 -35 121 -26 57 -56 129 -66 159
-10 30 -21 59 -25 64 -5 4 -15 -25 -24 -65z"/>
<path d="M1686 918 c-3 -35 -7 -106 -9 -158 -2 -79 1 -95 13 -95 17 0 25 58
31 220 4 77 2 90 -13 93 -13 3 -17 -8 -22 -60z"/>
</g>
</svg>